<svg width="114" height="45" viewBox="0 0 114 45" fill="none" xmlns="http://www.w3.org/2000/svg">
<path d="M4.74342 40.733V24.8893H0.0559235V18.1705H18.0559C19.858 18.1705 21.4465 18.4101 22.8215 18.8893C24.1965 19.3684 25.358 20.0143 26.3059 20.8268C27.2538 21.6393 28.0403 22.7382 28.6653 24.1236C29.3007 25.5091 29.6184 27.3111 29.6184 29.5299C29.5038 31.582 29.1601 33.3268 28.5872 34.7643C28.0143 36.2018 27.2538 37.3372 26.3059 38.1705C25.358 39.0039 24.1965 39.6497 22.8215 40.108C21.457 40.5664 19.7434 40.7747 17.6809 40.733H4.74342ZM12.2747 23.7643V35.108H16.5715C17.5403 35.108 18.3215 34.9049 18.9153 34.4986C19.509 34.082 19.9934 33.5559 20.3684 32.9205C20.7434 32.2747 20.983 31.1184 21.0872 29.4518C21.0559 27.9309 20.8424 26.8111 20.4465 26.0924C20.0611 25.3632 19.5611 24.7955 18.9465 24.3893C18.332 23.9726 17.5299 23.7643 16.5403 23.7643H12.2747ZM41.5715 23.1705L38.3372 32.108H44.5559L41.5715 23.1705ZM28.2122 24.8893V18.1705H47.1497L54.6965 40.733H46.1653L44.7434 36.6705H38.0403L36.6184 40.733H28.5247L33.7278 24.8893H28.2122ZM54.3997 40.733V18.1705H69.0872C70.8997 18.3372 72.3893 18.8164 73.5559 19.608C74.7226 20.3997 75.5768 21.4622 76.1184 22.7955C76.5351 24.7955 76.5559 26.3372 76.1809 27.4205C75.8059 28.5039 75.1497 29.4101 74.2122 30.1393C73.2747 30.8684 71.9309 31.4414 70.1809 31.858L71.8684 34.0143H83.9309V40.733H69.7122L62.5559 33.2799V40.733H54.3997ZM62.5559 23.7955V27.9518H68.2434C68.5455 27.9518 68.8736 27.8424 69.2278 27.6236C69.582 27.3945 69.7695 26.8268 69.7903 25.9205C69.7382 25.0559 69.5247 24.4882 69.1497 24.2174C68.7851 23.9361 68.4778 23.7955 68.2278 23.7955H62.5559ZM96.8684 18.1705V24.8893H89.7122V40.733H82.3684V24.8893H75.2122V18.1705H96.8684Z" fill="white"/>
<path d="M103.408 31.7643V37.3424C103.408 37.582 103.361 37.7486 103.267 37.8424C103.184 37.9361 103.022 37.983 102.783 37.983H100.564C100.324 37.983 100.158 37.9361 100.064 37.8424C99.9806 37.7486 99.9389 37.582 99.9389 37.3424V31.7643H94.3764C94.1369 31.7643 93.9702 31.7174 93.8764 31.6236C93.7827 31.5299 93.7358 31.358 93.7358 31.108V29.0611C93.7358 28.8111 93.7827 28.6393 93.8764 28.5455C93.9702 28.4518 94.1369 28.4049 94.3764 28.4049H99.9389V22.7486C99.9389 22.5091 99.9806 22.3424 100.064 22.2486C100.158 22.1549 100.324 22.108 100.564 22.108H102.783C103.022 22.108 103.184 22.1549 103.267 22.2486C103.361 22.3424 103.408 22.5091 103.408 22.7486V28.4049H109.064C109.314 28.4049 109.486 28.4518 109.58 28.5455C109.673 28.6393 109.72 28.8111 109.72 29.0611V31.108C109.72 31.358 109.673 31.5299 109.58 31.6236C109.486 31.7174 109.314 31.7643 109.064 31.7643H103.408Z" fill="white"/>
</svg>
